<svg version="1.1"
	 xmlns="http://www.w3.org/2000/svg" xmlns:xlink="http://www.w3.org/1999/xlink" xmlns:a="http://ns.adobe.com/AdobeSVGViewerExtensions/3.0/"
	 x="0px" y="0px" width="900.2px" height="876.6px" viewBox="0 0 900.2 876.6" style="enable-background:new 0 0 900.2 876.6;"
	 xml:space="preserve">
<style type="text/css">
	.st0{fill:#FFFFFF;}
	.st1{fill:#EB0029;}
</style>
<defs>
</defs>
<g>
	<g>
		<rect class="st0" width="900.2" height="876.6"/>
		<g>
			<rect x="481.3" y="307.8" class="st1" width="20" height="8.6"/>
			<polygon class="st1" points="339.1,591.7 319.4,591.7 319.4,550.7 277.8,550.7 277.8,591.7 237.6,591.7 237.6,611.5 339.1,611.5 
							"/>
			<rect x="257.8" y="530.8" class="st1" width="81.3" height="19.9"/>
			<rect x="136.2" y="430.1" class="st1" width="39.7" height="19.8"/>
			<rect x="521" y="105.5" class="st1" width="19.9" height="19.9"/>
			<rect x="278.3" y="267.3" class="st1" width="39.5" height="19.9"/>
			<rect x="480.8" y="207" class="st1" width="19.9" height="19.9"/>
			<polygon class="st1" points="338.9,246.8 318.6,246.8 318.6,267.1 419.6,267.1 419.6,246.8 439.7,246.8 439.7,226.9 399.5,226.9 
				399.5,246.8 379.1,246.8 379.1,226.9 379.1,207 359.2,207 359.2,226.9 338.9,226.9 			"/>
			<polygon class="st1" points="419.6,206.3 419.6,166 399.3,166 399.3,186.6 379.5,186.6 379.5,206.5 399.3,206.5 399.3,206.3 			
				"/>
			<rect x="359.2" y="166.7" class="st1" width="19.9" height="19.9"/>
			<rect x="723.5" y="308.4" class="st1" width="19.9" height="19.9"/>
			<rect x="480.8" y="247" class="st1" width="19.9" height="19.9"/>
			<rect x="237.6" y="571.6" class="st1" width="19.9" height="19.9"/>
			<rect x="500.7" y="64.9" class="st1" width="39.7" height="20"/>
			<rect x="662.4" y="368.3" class="st1" width="41" height="19.4"/>
			<rect x="582.6" y="489.9" class="st1" width="19.9" height="19.9"/>
			<rect x="560.3" y="530.5" class="st1" width="42.3" height="40"/>
			<rect x="703.7" y="308.4" class="st1" width="19.3" height="79.3"/>
			<polygon class="st1" points="439.7,287.5 419.6,287.5 419.6,308.4 439,308.4 439,316.4 460.7,316.4 460.7,308.4 460.7,287.5 
				480.6,287.5 480.6,267.1 439.7,267.1 			"/>
			<rect x="683.6" y="430.2" class="st1" width="19.3" height="39.8"/>
			<rect x="703.4" y="266.9" class="st1" width="19.9" height="19.9"/>
			<polygon class="st1" points="724.4,549.7 724.4,490.3 702.9,490.3 683.6,490.3 683.6,549.7 702.9,549.7 			"/>
			<rect x="561.6" y="408.1" class="st1" width="41.1" height="19.9"/>
			<rect x="460.7" y="226.9" class="st1" width="19.9" height="19.9"/>
			<rect x="551.1" y="387.7" class="st1" width="9.2" height="20.7"/>
			<rect x="540.4" y="84.9" class="st1" width="39.7" height="20"/>
			<polygon class="st1" points="551.1,470 560.3,470 560.3,489.9 580.8,489.9 580.8,450.1 560.3,450.1 560.3,430.2 551.1,430.2 			
				"/>
			<rect x="561.8" y="146" class="st1" width="19.3" height="40"/>
			<rect x="501.2" y="226.9" class="st1" width="19.9" height="19.9"/>
			<path class="st1" d="M515.6,316.4c1.8,0,3.5,0.2,5.1,0.4v-49.9h-19.3v49.5H515.6z"/>
			<polygon class="st1" points="521.1,166.8 521.1,226.3 540.4,226.3 540.4,206.9 560.3,206.9 560.3,187 540.4,187 540.4,166.8 			
				"/>
			<rect x="338.9" y="105.1" class="st1" width="19.9" height="19.9"/>
			<rect x="724.7" y="530.7" class="st1" width="19.3" height="41.1"/>
			<rect x="622.5" y="408.1" class="st1" width="59.4" height="19.9"/>
			<rect x="582.6" y="388.1" class="st1" width="99.3" height="19.9"/>
			<polygon class="st1" points="580.4,631.5 580.4,611.6 560.9,611.6 560.9,571.8 541,571.8 521.1,571.8 521.1,591.7 541,591.7 
				541,672.7 560.5,672.7 560.9,672.7 580.4,672.7 580.4,652.8 560.9,652.8 560.9,631.5 			"/>
			<path class="st1" d="M521,551.9v-22h20v-20.1h-0.9c-6.4,6.1-15,9.8-24.4,9.8H481v10.2h20v22H521z"/>
			<path class="st1" d="M460.1,571.7v-52.1h-19.9v10.2h-20.8v-10.2h-20.1v10.2h-40v-19.6c-7-6.5-11.5-15.8-11.5-26.1V368.9h-9.4V349
				h9.5c1.5-18.2,16.7-32.6,35.3-32.6h36.3v-8.6h-20.1v-20.3h20.1v-20.4H379v20.4h-19.7v20.3h-20.8v-0.2h-21v40.7h-19.3v19.9h19.3
				v19.5h-19.9v-19.5h-19.9v19.9h19.9v41.1h-39.8v21h39.8v40h-19.9V510h19.9v20.9h19.9v-41.4h19.9v-19.9h-19.9v-19.4h20.9v80.7h20.9
				v21v19.9h19.9v-19.9h60.9v19.9H460.1z M338.4,429.1h-20.9v-20.2h20.9V429.1z"/>
			<rect x="136.2" y="470.1" class="st1" width="60.9" height="19.8"/>
			<rect x="460.1" y="571.8" class="st1" width="19.9" height="19.9"/>
			<polygon class="st1" points="764.9,226.9 764.9,328.3 745,328.3 745,348.2 764.9,348.2 764.9,368.3 745,368.3 745,387.7 
				804.1,387.7 804.3,387.7 823.3,387.7 823.3,349 804.1,349 804.1,368.3 784.2,368.3 784.2,307.6 804.1,307.6 804.1,287.8 
				784.2,287.8 784.2,226.9 			"/>
			<rect x="682.1" y="287.8" class="st1" width="19.9" height="19.9"/>
			<rect x="784.2" y="207" class="st1" width="19.9" height="19.9"/>
			<polygon class="st1" points="763.6,591.4 763.6,551.3 783.8,551.3 783.8,510.2 763.6,510.2 763.6,489.9 744.3,489.9 744.3,591.4 
							"/>
			<polygon class="st1" points="824.6,510.2 804.5,510.2 783.8,510.2 783.8,530.1 804.5,530.1 804.5,570.8 824.6,570.8 			"/>
			<rect x="724.4" y="470" class="st1" width="19.9" height="19.9"/>
			<rect x="804.6" y="591.7" class="st1" width="19.9" height="19.9"/>
			<rect x="257.3" y="287.7" class="st1" width="19.9" height="19.9"/>
			<rect x="197.7" y="247" class="st1" width="19.9" height="19.9"/>
			<rect x="176.7" y="226.6" class="st1" width="19.9" height="19.9"/>
			<rect x="94.5" y="408.9" class="st1" width="41.4" height="21"/>
			<rect x="176.3" y="450.1" class="st1" width="41.7" height="19.8"/>
			<rect x="175.9" y="408.9" class="st1" width="81.4" height="21"/>
			<rect x="257.3" y="387.7" class="st1" width="19.9" height="19.9"/>
			<rect x="237.9" y="247" class="st1" width="19.9" height="19.9"/>
			<polygon class="st1" points="237.9,509.7 237.9,489.9 257.8,489.9 257.8,470.1 218,470.1 218,489.9 197.1,489.9 197.1,509.7 			
				"/>
			<rect x="115.5" y="510" class="st1" width="20.8" height="41.7"/>
			<rect x="75.2" y="510" class="st1" width="20.8" height="61.6"/>
			<path class="st1" d="M156,388.8v18.8h19.9v-18.9h62v-20.5h-62v-19.6h-19.7v-20.2h19.7v19.9h81.4v-20h-19.7v-19.8h0.3v-20.8h-62
				v20.8H96.2v19.9H136v0.2h-19.7v19.8H96.2v40.4h20.1v-40.3H136v40.3H156z M197.7,308.5h19.9v19.8h-19.9V308.5z M156.2,368.5h19.7
				v19.2h-19.7V368.5z"/>
			<polygon class="st1" points="177.2,591.7 177.2,611.4 75.2,611.4 75.2,631.3 216.9,631.3 216.9,611.4 197.1,611.4 197.1,591.7 
							"/>
			<rect x="116.3" y="571.6" class="st1" width="19.9" height="19.9"/>
			<rect x="155.8" y="571.6" class="st1" width="19.9" height="19.9"/>
			<rect x="419.3" y="591.7" class="st1" width="81.6" height="19.8"/>
			<polygon class="st1" points="399.2,753 379,753 379,794.3 399.2,794.3 399.2,772.8 419.1,772.8 419.1,752.9 399.2,752.9 			"/>
			<rect x="560.9" y="773.6" class="st1" width="41.6" height="19.9"/>
			<rect x="480.5" y="773.6" class="st1" width="19.9" height="19.9"/>
			<rect x="419.3" y="773.6" class="st1" width="19.9" height="19.9"/>
			<path class="st1" d="M480.8,652.1h-20.1v-20.4h-41.6v-20.3h-40v-19.7h-19.9v19.7h-19.9v81.7h19.9v0.2h20v39.7h19.9v-19.8h40V733
				h-20.1v19.9h41.6V733h40v-19.9h-40v-19.8h-21.5v-19.9h21.5v19.9h40.2v-19.9h-20.1V652.1z M359.3,611.6h19.9v20.1h-19.9V611.6z
				 M419.2,673.5h-59.9v-21.4h59.9V673.5z"/>
			<rect x="177.2" y="550.7" class="st1" width="19.9" height="20.9"/>
			<rect x="481" y="551.9" class="st1" width="19.9" height="19.9"/>
			<polygon class="st1" points="521,672.7 521,631.5 501.1,631.5 501.1,672.7 520.7,672.7 520.7,713.5 540.6,713.5 540.6,672.7 			
				"/>
			<rect x="481" y="611.6" class="st1" width="19.9" height="19.9"/>
			<rect x="197.1" y="530.8" class="st1" width="19.9" height="19.9"/>
			<rect x="177.2" y="510" class="st1" width="19.9" height="20.9"/>
			<rect x="217" y="550.7" class="st1" width="19.9" height="20.9"/>
			<polygon class="st1" points="339.3,672.4 319.4,672.4 319.4,631.3 297.8,631.3 297.8,652.1 277.6,652.1 277.6,693.3 297.8,693.3 
				297.8,713.2 319.4,713.2 319.4,733 297.8,733 297.8,752.9 319.4,752.9 319.4,772.8 339.3,772.8 339.3,752.9 359,752.9 359,733 
				339.3,733 			"/>
			<polygon class="st1" points="257.5,733 277.4,733 277.4,693.3 257.5,693.3 257.5,631.3 237.6,631.3 237.6,713.5 257.5,713.5 			
				"/>
			<rect x="339.1" y="773.6" class="st1" width="19.9" height="19.9"/>
			<polygon class="st1" points="297.3,753.7 277.4,753.7 277.4,773.6 257.5,773.6 257.5,793.5 319.4,793.5 319.4,773.6 297.3,773.6 
							"/>
			<polygon class="st1" points="580.4,713 560.5,713 560.5,713.5 540.6,713.5 540.6,752.7 520.7,752.7 520.7,793.5 540.6,793.5 
				540.6,772.6 560.5,772.6 560.5,732.9 580.4,732.9 			"/>
			<path class="st1" d="M682.3,752.7H724V713h79.7v-19.9h20.2v-20.4h-40.3v-20h20.1v-41.1h-20.4v-20.5h-19.3v41.1h19.3v19.3h-19.5
				v-20.1h-19.9v-19.8v0v-19.8h-61.6v19.8h-19.7v19.9H724v61.7h-61.5V713h19.7V752.7z M743.9,672.7h19.8h0h0.1v20.4h-20V672.7z"/>
			<rect x="682.3" y="773.6" class="st1" width="19.9" height="19.9"/>
			<rect x="682.3" y="652.3" class="st1" width="19.9" height="19.9"/>
			<rect x="724" y="773.6" class="st1" width="19.9" height="19.9"/>
			<polygon class="st1" points="803.8,753.7 803.7,753.7 803.7,733.9 783.8,733.9 783.8,753.7 763.9,753.7 763.9,773.6 763.9,793.5 
				824.8,793.5 824.8,773.6 803.8,773.6 			"/>
			<rect x="805.1" y="226.9" class="st1" width="19.9" height="19.9"/>
			<polygon class="st1" points="622.5,430.2 602.6,430.2 602.6,450.1 622.2,450.1 622.2,470 602.6,470 602.6,489.9 622.2,489.9 
				622.2,509.8 642.8,509.8 642.8,450.1 622.5,450.1 			"/>
			<rect x="622.6" y="571.8" class="st1" width="19.8" height="39.9"/>
			<rect x="622.5" y="713" class="st1" width="19.9" height="19.9"/>
			<rect x="622.5" y="752.7" class="st1" width="19.9" height="19.9"/>
			<rect x="602.5" y="571.8" class="st1" width="19.8" height="161.1"/>
			<rect x="642.8" y="611.7" class="st1" width="19.8" height="141.1"/>
			<rect x="622.5" y="529.8" class="st1" width="19.9" height="19.9"/>
			<polygon class="st1" points="682.3,549.7 662.5,549.7 662.5,509.8 683.1,509.8 683.1,470 662.5,470 662.5,490.1 642.8,490.1 
				642.8,591.4 662.5,591.4 682.3,591.4 			"/>
			<polygon class="st1" points="419.6,104.7 438.7,104.7 438.7,84.8 459.5,84.8 459.5,45.1 438.7,45.1 419.6,45.1 419.6,44.9 
				379.9,44.9 379.9,64.9 419.6,64.9 			"/>
			<rect x="642.5" y="146" class="st1" width="19.3" height="40"/>
			<path class="st1" d="M602.7,287.8h19.8v19.9h19.9v-19.9h20.2v40.6h-0.2v-19.9h-19.9v19.9h-82.3v-41.5h19.9v-19.9h-19.9V247H541
				v80.1c5.6,5.8,9.3,13.4,10,21.9h10.8v38.7h19.3V349h21.6v19.9h19.9V349h19.9v19.9h19.9V349h19.8v-20.7h-0.2V247h-19.3h-80.1v19.9
				h20.1V287.8z"/>
			<rect x="724.9" y="388.1" class="st1" width="38.9" height="19.9"/>
			<rect x="561.5" y="226.9" class="st1" width="19.9" height="19.9"/>
			<rect x="480.8" y="44.9" class="st1" width="100.2" height="20"/>
			<rect x="439.4" y="124.6" class="st1" width="21.3" height="101.6"/>
			<polygon class="st1" points="480.8,125.3 500.6,125.3 500.6,146 481.3,146 481.3,186 500.6,186 500.6,165.3 520.4,165.3 
				520.4,125.3 500.7,125.3 500.7,105.5 480.8,105.5 480.8,84.6 461.3,84.6 461.3,124.9 480.8,124.9 			"/>
			<polygon class="st1" points="602.6,124.9 582.8,124.9 582.8,145.7 642.5,145.7 642.5,125 661.8,125 661.8,43.1 602.6,43.1 
				602.6,65 582.8,65 582.8,84.8 602.6,84.8 			"/>
			<rect x="602.6" y="166.7" class="st1" width="19.9" height="19.9"/>
			<polygon class="st1" points="803.8,489.9 803.8,430.2 783.8,430.2 783.8,408.6 764.5,408.6 764.5,489.9 783.8,489.9 			"/>
			<rect x="724.4" y="430.2" class="st1" width="19.9" height="19.9"/>
			<rect x="723.5" y="247" class="st1" width="40.2" height="19.9"/>
			<polygon class="st1" points="662.4,246.8 662.4,226.9 662.6,226.9 662.6,207 622.4,207 622.4,226.9 642.5,226.9 642.5,246.8 			
				"/>
			<rect x="723.5" y="227" class="st1" width="19.9" height="19.9"/>
			<rect x="683.3" y="207" class="st1" width="40.2" height="19.9"/>
			<polygon class="st1" points="317.8,186.2 296.9,186.2 296.9,166 277.4,166 277.4,206.3 296.9,206.3 296.9,226.4 318.8,226.4 
				318.8,206.3 338.9,206.3 338.9,206.5 358.8,206.5 358.8,186.6 338.9,186.6 338.9,145.4 317.8,145.4 297.9,145.4 297.9,165.3 
				317.8,165.3 			"/>
			<rect x="94.8" y="267.8" class="st1" width="19.9" height="19.9"/>
			<rect x="136.3" y="246.8" class="st1" width="39.3" height="20.4"/>
			<polygon class="st1" points="94.8,246.8 136.3,246.8 136.3,227.1 74.9,227.1 74.9,246.8 74.9,266.7 94.8,266.7 			"/>
			<rect x="74.9" y="287.7" class="st1" width="19.9" height="19.9"/>
			<polygon class="st1" points="359.9,145.4 379.8,145.4 379.8,164.8 399,164.8 399,84.8 379.8,84.8 379.8,125.6 359.9,125.6 			"/>
			<polygon class="st1" points="115.5,469.9 136.2,469.9 136.2,470 156.1,470 156.1,450.1 136.2,450.1 94.5,450.1 94.5,469.9 
				74.7,469.9 74.7,490.1 115.5,490.1 			"/>
			<rect x="298.6" y="84.8" class="st1" width="19.1" height="39.8"/>
			<rect x="197.1" y="571.6" class="st1" width="19.9" height="19.9"/>
			<polygon class="st1" points="318.8,84 379.4,84 379.4,64.9 337.3,64.9 337.3,44.9 298.4,44.9 298.4,64.9 318.8,64.9 			"/>
			<rect x="237.4" y="65" class="st1" width="19.9" height="19.9"/>
			<polygon class="st1" points="155.6,206.9 155.6,226.1 217.8,226.1 217.8,246.8 278.3,246.8 278.3,226.1 237.4,226.1 237.4,206.9 
							"/>
			<polygon class="st1" points="258.2,164.8 277.4,164.8 277.4,145.4 297.3,145.4 297.3,125.6 277.4,125.6 277.4,84.8 258.2,84.8 
				258.2,145.2 237.4,145.2 237.4,206.3 258.2,206.3 			"/>
			<rect x="277.4" y="65" class="st1" width="19.9" height="19.9"/>
			<path class="st1" d="M538.4,484.9V352.6c0-12.6-10.2-22.8-22.8-22.8H383.3c-12.6,0-22.8,10.2-22.8,22.8v132.3
				c0,12.6,10.2,22.8,22.8,22.8h132.3C528.2,507.7,538.4,497.5,538.4,484.9z"/>
			<rect x="116.2" y="85.7" class="st1" width="60.3" height="60.3"/>
			<path class="st1" d="M217.8,43.9H74.9v142.9h142.9V43.9z M196,165.1H96.7V65.7H196V165.1z"/>
			<rect x="723.4" y="85.7" class="st1" width="60.3" height="60.3"/>
			<path class="st1" d="M682.1,43.9v142.9H825V43.9H682.1z M803.2,165.1h-99.4V65.7h99.4V165.1z"/>
			<rect x="116.2" y="693.8" class="st1" width="60.3" height="60.3"/>
			<path class="st1" d="M74.9,795h142.9V652.1H74.9V795z M96.7,673.8H196v99.4H96.7V673.8z"/>
		</g>
	</g>
	<g>
		<path class="st0" d="M470.1,403.1c-9.5,0.5-17.8,3.4-24.6,9.9c-6.8,6.6-9.9,14.7-9.1,24.7c-3.7-0.5-7.1-1-10.5-1.3
			c-1.2-0.1-2.6,0-3.6,0.6c-3.3,1.9-6.5,4-10.3,6.3c0.7-3.1,1.1-5.9,1.9-8.5c0.6-1.9,0.3-3-1.5-4.3c-11.5-8.1-16.3-20.2-12.7-32.7
			c3.3-11.5,11.6-18.5,22.7-22.2c15.2-5,32.4,0.1,41.6,12.2C467.5,392.4,469.6,397.3,470.1,403.1z M426.2,399.2
			c0.1-2.3-1.9-4.3-4.2-4.4c-2.4-0.1-4.4,1.8-4.4,4.1c-0.1,2.4,1.8,4.3,4.2,4.4C424.1,403.4,426.1,401.6,426.2,399.2z M449.1,394.8
			c-2.4,0-4.3,2-4.3,4.3c0,2.4,2,4.2,4.4,4.2c2.4,0,4.3-1.9,4.2-4.3C453.4,396.7,451.5,394.8,449.1,394.8z"/>
		<path class="st0" d="M491.6,462.6c-3-1.3-5.8-3.4-8.7-3.7c-2.9-0.3-6,1.4-9.1,1.7c-9.4,1-17.8-1.7-24.7-8.1
			c-13.2-12.2-11.3-30.9,3.9-40.8c13.5-8.9,33.4-5.9,42.9,6.4c8.3,10.7,7.4,25-2.8,34c-2.9,2.6-4,4.8-2.1,8.2
			C491.3,461,491.4,461.8,491.6,462.6z M457.2,429.3c1.9,0,3.5-1.5,3.6-3.4c0.1-2-1.5-3.7-3.6-3.7c-2,0-3.7,1.7-3.6,3.7
			C453.6,427.8,455.2,429.3,457.2,429.3z M479.3,422.2c-1.9,0-3.5,1.5-3.5,3.4c-0.1,2,1.5,3.7,3.5,3.7c1.9,0,3.5-1.5,3.5-3.4
			C482.9,423.9,481.3,422.2,479.3,422.2z"/>
	</g>
</g>
</svg>
