<svg xmlns="http://www.w3.org/2000/svg" viewBox="0 0 434.168 434.168" width="512" height="512"><path d="M332.318 230.196V34.967H40.93v364.235h134.038c9.616 0 17.483 7.867 17.483 17.483s-7.867 17.483-17.483 17.483H23.446c-9.616 0-17.483-7.867-17.483-17.483V17.483C5.963 7.867 13.83 0 23.446 0H349.8c9.616 0 17.483 7.867 17.483 17.483v212.713c0 9.616-7.867 17.483-17.483 17.483s-17.482-7.867-17.482-17.483zm-64.106-128.2h-157.35c-9.616 0-17.483 7.867-17.483 17.483s7.867 17.483 17.483 17.483h157.35c9.616 0 17.483-7.867 17.483-17.483s-7.867-17.483-17.483-17.483zm17.484 113.63c0-9.616-7.867-17.483-17.483-17.483h-157.35c-9.616 0-17.483 7.867-17.483 17.483s7.867 17.483 17.483 17.483h157.35c9.616 0 17.484-7.867 17.484-17.483zm-174.833 75.76c-9.616 0-17.483 7.867-17.483 17.483s7.867 17.483 17.483 17.483h46.622c9.616 0 17.483-7.867 17.483-17.483s-7.867-17.483-17.483-17.483h-46.622z" fill="#ca151c"/><g stroke-linejoin="round" stroke-width="25.464" stroke="#ca151c" fill="none"><path d="M252.428 287.383l91.834 111.923" fill-opacity=".42"/><path d="M344.262 287.383l-91.834 111.923" fill-opacity=".42"/></g><g fill="#ca151c"><path d="M263.683 405.303a12.802 11.631 31.259 0 1-1.365 2.132 12.802 11.631 31.259 0 1-17.482 1.053 12.802 11.631 31.259 0 1-2.595-16.878 12.802 11.631 31.259 0 1 1.03-1.056 14.253 13.486 25.255 0 0 5.335 12.791 14.253 13.486 25.255 0 0 15.077 1.958z"/><path d="M263.002 405.34l-4.946 3.424-14.585-5.2-.888-8.56.188-3.142.38-1.12.74-.1z" fill-rule="evenodd"/><path d="M333.573 405.874a11.631 12.802 58.741 0 0 1.365 2.132 11.631 12.802 58.741 0 0 17.482 1.053 11.631 12.802 58.741 0 0 2.595-16.878 11.631 12.802 58.741 0 0-1.03-1.056 13.486 14.253 64.745 0 1-5.335 12.791 13.486 14.253 64.745 0 1-15.077 1.958z"/><path d="M334.255 405.91l4.946 3.425 14.585-5.2.888-8.56-.188-3.143-.38-1.12-.74-.1z" fill-rule="evenodd"/><path d="M333.7 280.522a12.802 11.631 33.269 0 1 1.439-2.083 12.802 11.631 33.269 0 1 17.508-.439 12.802 11.631 33.269 0 1 2.001 16.959 12.802 11.631 33.269 0 1-1.066 1.019 14.253 13.486 27.266 0 0-4.883-12.97 14.253 13.486 27.266 0 0-14.999-2.486z"/><path d="M334.382 280.51l5.063-3.25 14.394 5.71.587 8.587-.298 3.134-.42 1.107-.743.063z" fill-rule="evenodd"/><path d="M263.502 281.105a11.631 12.802 56.731 0 0-1.439-2.083 11.631 12.802 56.731 0 0-17.508-.439 11.631 12.802 56.731 0 0-2.001 16.959 11.631 12.802 56.731 0 0 1.066 1.019 13.486 14.253 62.734 0 1 4.883-12.969 13.486 14.253 62.734 0 1 14.999-2.486z"/><path d="M262.82 281.094l-5.063-3.25-14.394 5.71-.587 8.587.298 3.134.42 1.107.743.064z" fill-rule="evenodd"/></g></svg>