<?xml version="1.0" encoding="UTF-8" standalone="no"?>
<svg
   xmlns:dc="http://purl.org/dc/elements/1.1/"
   xmlns:cc="http://creativecommons.org/ns#"
   xmlns:rdf="http://www.w3.org/1999/02/22-rdf-syntax-ns#"
   xmlns:svg="http://www.w3.org/2000/svg"
   xmlns="http://www.w3.org/2000/svg"
   xmlns:sodipodi="http://sodipodi.sourceforge.net/DTD/sodipodi-0.dtd"
   xmlns:inkscape="http://www.inkscape.org/namespaces/inkscape"
   version="1.1"
   x="0px"
   y="0px"
   width="797.04401"
   height="787.24133"
   viewBox="0 0 797.044 787.24135"
   xml:space="preserve"
   id="svg2"
   inkscape:version="0.91 r13725"
   sodipodi:docname="qr_anditrip.svg"><metadata
     id="metadata286"><rdf:RDF><cc:Work
         rdf:about=""><dc:format>image/svg+xml</dc:format><dc:type
           rdf:resource="http://purl.org/dc/dcmitype/StillImage" /><dc:title></dc:title></cc:Work></rdf:RDF></metadata><sodipodi:namedview
     pagecolor="#ffffff"
     bordercolor="#666666"
     borderopacity="1"
     objecttolerance="10"
     gridtolerance="10"
     guidetolerance="10"
     inkscape:pageopacity="0"
     inkscape:pageshadow="2"
     inkscape:window-width="1366"
     inkscape:window-height="714"
     id="namedview284"
     showgrid="false"
     inkscape:showpageshadow="false"
     fit-margin-top="0"
     fit-margin-left="0"
     fit-margin-right="0"
     fit-margin-bottom="0"
     inkscape:zoom="0.38073741"
     inkscape:cx="199.30076"
     inkscape:cy="231.49359"
     inkscape:window-x="0"
     inkscape:window-y="0"
     inkscape:window-maximized="1"
     inkscape:current-layer="svg2" /><style
     type="text/css"
     id="style4">
	.st0{fill:#FFFFFF;}
	.st1{fill:#EB0029;}
</style><defs
     id="defs6"><clipPath
       clipPathUnits="userSpaceOnUse"
       id="clipPath4418"><path
         style="fill:none;fill-rule:evenodd;stroke:#000000;stroke-width:1px;stroke-linecap:butt;stroke-linejoin:miter;stroke-opacity:1"
         d="m 55.156125,22.993277 794.510855,0 0,785.384163 -797.044008,1.8572 z"
         id="path4420"
         inkscape:connector-curvature="0"
         sodipodi:nodetypes="ccccc" /></clipPath></defs><g
     id="g8"
     clip-path="url(#clipPath4418)"
     transform="translate(-52.622972,-22.993277)"><g
       id="g10"><rect
         class="st0"
         width="900.20001"
         height="876.59998"
         id="rect12"
         x="0"
         y="0"
         style="fill:#ffffff" /><g
         id="g14"><rect
           x="481.29999"
           y="307.79999"
           class="st1"
           width="20"
           height="8.6000004"
           id="rect16"
           style="fill:#eb0029" /><polygon
           class="st1"
           points="277.8,550.7 277.8,591.7 237.6,591.7 237.6,611.5 339.1,611.5 339.1,591.7 319.4,591.7 319.4,550.7 "
           id="polygon18"
           style="fill:#eb0029" /><rect
           x="257.79999"
           y="530.79999"
           class="st1"
           width="81.300003"
           height="19.9"
           id="rect20"
           style="fill:#eb0029" /><rect
           x="136.2"
           y="430.10001"
           class="st1"
           width="39.700001"
           height="19.799999"
           id="rect22"
           style="fill:#eb0029" /><rect
           x="521"
           y="105.5"
           class="st1"
           width="19.9"
           height="19.9"
           id="rect24"
           style="fill:#eb0029" /><rect
           x="278.29999"
           y="267.29999"
           class="st1"
           width="39.5"
           height="19.9"
           id="rect26"
           style="fill:#eb0029" /><rect
           x="480.79999"
           y="207"
           class="st1"
           width="19.9"
           height="19.9"
           id="rect28"
           style="fill:#eb0029" /><polygon
           class="st1"
           points="419.6,267.1 419.6,246.8 439.7,246.8 439.7,226.9 399.5,226.9 399.5,246.8 379.1,246.8 379.1,226.9 379.1,207 359.2,207 359.2,226.9 338.9,226.9 338.9,246.8 318.6,246.8 318.6,267.1 "
           id="polygon30"
           style="fill:#eb0029" /><polygon
           class="st1"
           points="399.3,186.6 379.5,186.6 379.5,206.5 399.3,206.5 399.3,206.3 419.6,206.3 419.6,166 399.3,166 "
           id="polygon32"
           style="fill:#eb0029" /><rect
           x="359.20001"
           y="166.7"
           class="st1"
           width="19.9"
           height="19.9"
           id="rect34"
           style="fill:#eb0029" /><rect
           x="723.5"
           y="308.39999"
           class="st1"
           width="19.9"
           height="19.9"
           id="rect36"
           style="fill:#eb0029" /><rect
           x="480.79999"
           y="247"
           class="st1"
           width="19.9"
           height="19.9"
           id="rect38"
           style="fill:#eb0029" /><rect
           x="237.60001"
           y="571.59998"
           class="st1"
           width="19.9"
           height="19.9"
           id="rect40"
           style="fill:#eb0029" /><rect
           x="500.70001"
           y="64.900002"
           class="st1"
           width="39.700001"
           height="20"
           id="rect42"
           style="fill:#eb0029" /><rect
           x="662.40002"
           y="368.29999"
           class="st1"
           width="41"
           height="19.4"
           id="rect44"
           style="fill:#eb0029" /><rect
           x="582.59998"
           y="489.89999"
           class="st1"
           width="19.9"
           height="19.9"
           id="rect46"
           style="fill:#eb0029" /><rect
           x="560.29999"
           y="530.5"
           class="st1"
           width="42.299999"
           height="40"
           id="rect48"
           style="fill:#eb0029" /><rect
           x="703.70001"
           y="308.39999"
           class="st1"
           width="19.299999"
           height="79.300003"
           id="rect50"
           style="fill:#eb0029" /><polygon
           class="st1"
           points="439,308.4 439,316.4 460.7,316.4 460.7,308.4 460.7,287.5 480.6,287.5 480.6,267.1 439.7,267.1 439.7,287.5 419.6,287.5 419.6,308.4 "
           id="polygon52"
           style="fill:#eb0029" /><rect
           x="683.59998"
           y="430.20001"
           class="st1"
           width="19.299999"
           height="39.799999"
           id="rect54"
           style="fill:#eb0029" /><rect
           x="703.40002"
           y="266.89999"
           class="st1"
           width="19.9"
           height="19.9"
           id="rect56"
           style="fill:#eb0029" /><polygon
           class="st1"
           points="683.6,490.3 683.6,549.7 702.9,549.7 724.4,549.7 724.4,490.3 702.9,490.3 "
           id="polygon58"
           style="fill:#eb0029" /><rect
           x="561.59998"
           y="408.10001"
           class="st1"
           width="41.099998"
           height="19.9"
           id="rect60"
           style="fill:#eb0029" /><rect
           x="460.70001"
           y="226.89999"
           class="st1"
           width="19.9"
           height="19.9"
           id="rect62"
           style="fill:#eb0029" /><rect
           x="551.09998"
           y="387.70001"
           class="st1"
           width="9.1999998"
           height="20.700001"
           id="rect64"
           style="fill:#eb0029" /><rect
           x="540.40002"
           y="84.900002"
           class="st1"
           width="39.700001"
           height="20"
           id="rect66"
           style="fill:#eb0029" /><polygon
           class="st1"
           points="580.8,489.9 580.8,450.1 560.3,450.1 560.3,430.2 551.1,430.2 551.1,470 560.3,470 560.3,489.9 "
           id="polygon68"
           style="fill:#eb0029" /><rect
           x="561.79999"
           y="146"
           class="st1"
           width="19.299999"
           height="40"
           id="rect70"
           style="fill:#eb0029" /><rect
           x="501.20001"
           y="226.89999"
           class="st1"
           width="19.9"
           height="19.9"
           id="rect72"
           style="fill:#eb0029" /><path
           class="st1"
           d="m 515.6,316.4 c 1.8,0 3.5,0.2 5.1,0.4 l 0,-49.9 -19.3,0 0,49.5 14.2,0 z"
           id="path74"
           inkscape:connector-curvature="0"
           style="fill:#eb0029" /><polygon
           class="st1"
           points="540.4,206.9 560.3,206.9 560.3,187 540.4,187 540.4,166.8 521.1,166.8 521.1,226.3 540.4,226.3 "
           id="polygon76"
           style="fill:#eb0029" /><rect
           x="338.89999"
           y="105.1"
           class="st1"
           width="19.9"
           height="19.9"
           id="rect78"
           style="fill:#eb0029" /><rect
           x="724.70001"
           y="530.70001"
           class="st1"
           width="19.299999"
           height="41.099998"
           id="rect80"
           style="fill:#eb0029" /><rect
           x="622.5"
           y="408.10001"
           class="st1"
           width="59.400002"
           height="19.9"
           id="rect82"
           style="fill:#eb0029" /><rect
           x="582.59998"
           y="388.10001"
           class="st1"
           width="99.300003"
           height="19.9"
           id="rect84"
           style="fill:#eb0029" /><polygon
           class="st1"
           points="560.9,571.8 541,571.8 521.1,571.8 521.1,591.7 541,591.7 541,672.7 560.5,672.7 560.9,672.7 580.4,672.7 580.4,652.8 560.9,652.8 560.9,631.5 580.4,631.5 580.4,611.6 560.9,611.6 "
           id="polygon86"
           style="fill:#eb0029" /><path
           class="st1"
           d="m 521,551.9 0,-22 20,0 0,-20.1 -0.9,0 c -6.4,6.1 -15,9.8 -24.4,9.8 l -34.7,0 0,10.2 20,0 0,22 20,0 z"
           id="path88"
           inkscape:connector-curvature="0"
           style="fill:#eb0029" /><path
           class="st1"
           d="m 460.1,571.7 0,-52.1 -19.9,0 0,10.2 -20.8,0 0,-10.2 -20.1,0 0,10.2 -40,0 0,-19.6 c -7,-6.5 -11.5,-15.8 -11.5,-26.1 l 0,-115.2 -9.4,0 0,-19.9 9.5,0 c 1.5,-18.2 16.7,-32.6 35.3,-32.6 l 36.3,0 0,-8.6 -20.1,0 0,-20.3 20.1,0 0,-20.4 -40.5,0 0,20.4 -19.7,0 0,20.3 -20.8,0 0,-0.2 -21,0 0,40.7 -19.3,0 0,19.9 19.3,0 0,19.5 -19.9,0 0,-19.5 -19.9,0 0,19.9 19.9,0 0,41.1 -39.8,0 0,21 39.8,0 0,40 -19.9,0 0,19.8 19.9,0 0,20.9 19.9,0 0,-41.4 19.9,0 0,-19.9 -19.9,0 0,-19.4 20.9,0 0,80.7 20.9,0 0,21 0,19.9 19.9,0 0,-19.9 60.9,0 0,19.9 20,0 z m -121.7,-142.6 -20.9,0 0,-20.2 20.9,0 0,20.2 z"
           id="path90"
           inkscape:connector-curvature="0"
           style="fill:#eb0029" /><rect
           x="136.2"
           y="470.10001"
           class="st1"
           width="60.900002"
           height="19.799999"
           id="rect92"
           style="fill:#eb0029" /><rect
           x="460.10001"
           y="571.79999"
           class="st1"
           width="19.9"
           height="19.9"
           id="rect94"
           style="fill:#eb0029" /><polygon
           class="st1"
           points="745,348.2 764.9,348.2 764.9,368.3 745,368.3 745,387.7 804.1,387.7 804.3,387.7 823.3,387.7 823.3,349 804.1,349 804.1,368.3 784.2,368.3 784.2,307.6 804.1,307.6 804.1,287.8 784.2,287.8 784.2,226.9 764.9,226.9 764.9,328.3 745,328.3 "
           id="polygon96"
           style="fill:#eb0029" /><rect
           x="682.09998"
           y="287.79999"
           class="st1"
           width="19.9"
           height="19.9"
           id="rect98"
           style="fill:#eb0029" /><rect
           x="784.20001"
           y="207"
           class="st1"
           width="19.9"
           height="19.9"
           id="rect100"
           style="fill:#eb0029" /><polygon
           class="st1"
           points="783.8,510.2 763.6,510.2 763.6,489.9 744.3,489.9 744.3,591.4 763.6,591.4 763.6,551.3 783.8,551.3 "
           id="polygon102"
           style="fill:#eb0029" /><polygon
           class="st1"
           points="783.8,530.1 804.5,530.1 804.5,570.8 824.6,570.8 824.6,510.2 804.5,510.2 783.8,510.2 "
           id="polygon104"
           style="fill:#eb0029" /><rect
           x="724.40002"
           y="470"
           class="st1"
           width="19.9"
           height="19.9"
           id="rect106"
           style="fill:#eb0029" /><rect
           x="804.59998"
           y="591.70001"
           class="st1"
           width="19.9"
           height="19.9"
           id="rect108"
           style="fill:#eb0029" /><rect
           x="257.29999"
           y="287.70001"
           class="st1"
           width="19.9"
           height="19.9"
           id="rect110"
           style="fill:#eb0029" /><rect
           x="197.7"
           y="247"
           class="st1"
           width="19.9"
           height="19.9"
           id="rect112"
           style="fill:#eb0029" /><rect
           x="176.7"
           y="226.60001"
           class="st1"
           width="19.9"
           height="19.9"
           id="rect114"
           style="fill:#eb0029" /><rect
           x="94.5"
           y="408.89999"
           class="st1"
           width="41.400002"
           height="21"
           id="rect116"
           style="fill:#eb0029" /><rect
           x="176.3"
           y="450.10001"
           class="st1"
           width="41.700001"
           height="19.799999"
           id="rect118"
           style="fill:#eb0029" /><rect
           x="175.89999"
           y="408.89999"
           class="st1"
           width="81.400002"
           height="21"
           id="rect120"
           style="fill:#eb0029" /><rect
           x="257.29999"
           y="387.70001"
           class="st1"
           width="19.9"
           height="19.9"
           id="rect122"
           style="fill:#eb0029" /><rect
           x="237.89999"
           y="247"
           class="st1"
           width="19.9"
           height="19.9"
           id="rect124"
           style="fill:#eb0029" /><polygon
           class="st1"
           points="257.8,470.1 218,470.1 218,489.9 197.1,489.9 197.1,509.7 237.9,509.7 237.9,489.9 257.8,489.9 "
           id="polygon126"
           style="fill:#eb0029" /><rect
           x="115.5"
           y="510"
           class="st1"
           width="20.799999"
           height="41.700001"
           id="rect128"
           style="fill:#eb0029" /><rect
           x="75.199997"
           y="510"
           class="st1"
           width="20.799999"
           height="61.599998"
           id="rect130"
           style="fill:#eb0029" /><path
           class="st1"
           d="m 156,388.8 0,18.8 19.9,0 0,-18.9 62,0 0,-20.5 -62,0 0,-19.6 -19.7,0 0,-20.2 19.7,0 0,19.9 81.4,0 0,-20 -19.7,0 0,-19.8 0.3,0 0,-20.8 -62,0 0,20.8 -79.7,0 0,19.9 39.8,0 0,0.2 -19.7,0 0,19.8 -20.1,0 0,40.4 20.1,0 0,-40.3 19.7,0 0,40.3 20,0 z m 41.7,-80.3 19.9,0 0,19.8 -19.9,0 0,-19.8 z m -41.5,60 19.7,0 0,19.2 -19.7,0 0,-19.2 z"
           id="path132"
           inkscape:connector-curvature="0"
           style="fill:#eb0029" /><polygon
           class="st1"
           points="75.2,631.3 216.9,631.3 216.9,611.4 197.1,611.4 197.1,591.7 177.2,591.7 177.2,611.4 75.2,611.4 "
           id="polygon134"
           style="fill:#eb0029" /><rect
           x="116.3"
           y="571.59998"
           class="st1"
           width="19.9"
           height="19.9"
           id="rect136"
           style="fill:#eb0029" /><rect
           x="155.8"
           y="571.59998"
           class="st1"
           width="19.9"
           height="19.9"
           id="rect138"
           style="fill:#eb0029" /><rect
           x="419.29999"
           y="591.70001"
           class="st1"
           width="81.599998"
           height="19.799999"
           id="rect140"
           style="fill:#eb0029" /><polygon
           class="st1"
           points="399.2,794.3 399.2,772.8 419.1,772.8 419.1,752.9 399.2,752.9 399.2,753 379,753 379,794.3 "
           id="polygon142"
           style="fill:#eb0029" /><rect
           x="560.90002"
           y="773.59998"
           class="st1"
           width="41.599998"
           height="19.9"
           id="rect144"
           style="fill:#eb0029" /><rect
           x="480.5"
           y="773.59998"
           class="st1"
           width="19.9"
           height="19.9"
           id="rect146"
           style="fill:#eb0029" /><rect
           x="419.29999"
           y="773.59998"
           class="st1"
           width="19.9"
           height="19.9"
           id="rect148"
           style="fill:#eb0029" /><path
           class="st1"
           d="m 480.8,652.1 -20.1,0 0,-20.4 -41.6,0 0,-20.3 -40,0 0,-19.7 -19.9,0 0,19.7 -19.9,0 0,81.7 19.9,0 0,0.2 20,0 0,39.7 19.9,0 0,-19.8 40,0 0,19.8 -20.1,0 0,19.9 41.6,0 0,-19.9 40,0 0,-19.9 -40,0 0,-19.8 -21.5,0 0,-19.9 21.5,0 0,19.9 40.2,0 0,-19.9 -20.1,0 0,-21.3 z m -121.5,-40.5 19.9,0 0,20.1 -19.9,0 0,-20.1 z m 59.9,61.9 -59.9,0 0,-21.4 59.9,0 0,21.4 z"
           id="path150"
           inkscape:connector-curvature="0"
           style="fill:#eb0029" /><rect
           x="177.2"
           y="550.70001"
           class="st1"
           width="19.9"
           height="20.9"
           id="rect152"
           style="fill:#eb0029" /><rect
           x="481"
           y="551.90002"
           class="st1"
           width="19.9"
           height="19.9"
           id="rect154"
           style="fill:#eb0029" /><polygon
           class="st1"
           points="501.1,672.7 520.7,672.7 520.7,713.5 540.6,713.5 540.6,672.7 521,672.7 521,631.5 501.1,631.5 "
           id="polygon156"
           style="fill:#eb0029" /><rect
           x="481"
           y="611.59998"
           class="st1"
           width="19.9"
           height="19.9"
           id="rect158"
           style="fill:#eb0029" /><rect
           x="197.10001"
           y="530.79999"
           class="st1"
           width="19.9"
           height="19.9"
           id="rect160"
           style="fill:#eb0029" /><rect
           x="177.2"
           y="510"
           class="st1"
           width="19.9"
           height="20.9"
           id="rect162"
           style="fill:#eb0029" /><rect
           x="217"
           y="550.70001"
           class="st1"
           width="19.9"
           height="20.9"
           id="rect164"
           style="fill:#eb0029" /><polygon
           class="st1"
           points="297.8,631.3 297.8,652.1 277.6,652.1 277.6,693.3 297.8,693.3 297.8,713.2 319.4,713.2 319.4,733 297.8,733 297.8,752.9 319.4,752.9 319.4,772.8 339.3,772.8 339.3,752.9 359,752.9 359,733 339.3,733 339.3,672.4 319.4,672.4 319.4,631.3 "
           id="polygon166"
           style="fill:#eb0029" /><polygon
           class="st1"
           points="257.5,693.3 257.5,631.3 237.6,631.3 237.6,713.5 257.5,713.5 257.5,733 277.4,733 277.4,693.3 "
           id="polygon168"
           style="fill:#eb0029" /><rect
           x="339.10001"
           y="773.59998"
           class="st1"
           width="19.9"
           height="19.9"
           id="rect170"
           style="fill:#eb0029" /><polygon
           class="st1"
           points="257.5,773.6 257.5,793.5 319.4,793.5 319.4,773.6 297.3,773.6 297.3,753.7 277.4,753.7 277.4,773.6 "
           id="polygon172"
           style="fill:#eb0029" /><polygon
           class="st1"
           points="540.6,713.5 540.6,752.7 520.7,752.7 520.7,793.5 540.6,793.5 540.6,772.6 560.5,772.6 560.5,732.9 580.4,732.9 580.4,713 560.5,713 560.5,713.5 "
           id="polygon174"
           style="fill:#eb0029" /><path
           class="st1"
           d="m 682.3,752.7 41.7,0 0,-39.7 79.7,0 0,-19.9 20.2,0 0,-20.4 -40.3,0 0,-20 20.1,0 0,-41.1 -20.4,0 0,-20.5 -19.3,0 0,41.1 19.3,0 0,19.3 -19.5,0 0,-20.1 -19.9,0 0,-19.8 0,0 0,-19.8 -61.6,0 0,19.8 -19.7,0 0,19.9 61.4,0 0,61.7 -61.5,0 0,19.8 19.7,0 0,39.7 z m 61.6,-80 19.8,0 0,0 0.1,0 0,20.4 -20,0 0,-20.4 z"
           id="path176"
           inkscape:connector-curvature="0"
           style="fill:#eb0029" /><rect
           x="682.29999"
           y="773.59998"
           class="st1"
           width="19.9"
           height="19.9"
           id="rect178"
           style="fill:#eb0029" /><rect
           x="682.29999"
           y="652.29999"
           class="st1"
           width="19.9"
           height="19.9"
           id="rect180"
           style="fill:#eb0029" /><rect
           x="724"
           y="773.59998"
           class="st1"
           width="19.9"
           height="19.9"
           id="rect182"
           style="fill:#eb0029" /><polygon
           class="st1"
           points="783.8,733.9 783.8,753.7 763.9,753.7 763.9,773.6 763.9,793.5 824.8,793.5 824.8,773.6 803.8,773.6 803.8,753.7 803.7,753.7 803.7,733.9 "
           id="polygon184"
           style="fill:#eb0029" /><rect
           x="805.09998"
           y="226.89999"
           class="st1"
           width="19.9"
           height="19.9"
           id="rect186"
           style="fill:#eb0029" /><polygon
           class="st1"
           points="622.2,450.1 622.2,470 602.6,470 602.6,489.9 622.2,489.9 622.2,509.8 642.8,509.8 642.8,450.1 622.5,450.1 622.5,430.2 602.6,430.2 602.6,450.1 "
           id="polygon188"
           style="fill:#eb0029" /><rect
           x="622.59998"
           y="571.79999"
           class="st1"
           width="19.799999"
           height="39.900002"
           id="rect190"
           style="fill:#eb0029" /><rect
           x="622.5"
           y="713"
           class="st1"
           width="19.9"
           height="19.9"
           id="rect192"
           style="fill:#eb0029" /><rect
           x="622.5"
           y="752.70001"
           class="st1"
           width="19.9"
           height="19.9"
           id="rect194"
           style="fill:#eb0029" /><rect
           x="602.5"
           y="571.79999"
           class="st1"
           width="19.799999"
           height="161.10001"
           id="rect196"
           style="fill:#eb0029" /><rect
           x="642.79999"
           y="611.70001"
           class="st1"
           width="19.799999"
           height="141.10001"
           id="rect198"
           style="fill:#eb0029" /><rect
           x="622.5"
           y="529.79999"
           class="st1"
           width="19.9"
           height="19.9"
           id="rect200"
           style="fill:#eb0029" /><polygon
           class="st1"
           points="683.1,509.8 683.1,470 662.5,470 662.5,490.1 642.8,490.1 642.8,591.4 662.5,591.4 682.3,591.4 682.3,549.7 662.5,549.7 662.5,509.8 "
           id="polygon202"
           style="fill:#eb0029" /><polygon
           class="st1"
           points="459.5,84.8 459.5,45.1 438.7,45.1 419.6,45.1 419.6,44.9 379.9,44.9 379.9,64.9 419.6,64.9 419.6,104.7 438.7,104.7 438.7,84.8 "
           id="polygon204"
           style="fill:#eb0029" /><rect
           x="642.5"
           y="146"
           class="st1"
           width="19.299999"
           height="40"
           id="rect206"
           style="fill:#eb0029" /><path
           class="st1"
           d="m 602.7,287.8 19.8,0 0,19.9 19.9,0 0,-19.9 20.2,0 0,40.6 -0.2,0 0,-19.9 -19.9,0 0,19.9 -82.3,0 0,-41.5 19.9,0 0,-19.9 -19.9,0 0,-20 -19.2,0 0,80.1 c 5.6,5.8 9.3,13.4 10,21.9 l 10.8,0 0,38.7 19.3,0 0,-38.7 21.6,0 0,19.9 19.9,0 0,-19.9 19.9,0 0,19.9 19.9,0 0,-19.9 19.8,0 0,-20.7 -0.2,0 0,-81.3 -19.3,0 -80.1,0 0,19.9 20.1,0 0,20.9 z"
           id="path208"
           inkscape:connector-curvature="0"
           style="fill:#eb0029" /><rect
           x="724.90002"
           y="388.10001"
           class="st1"
           width="38.900002"
           height="19.9"
           id="rect210"
           style="fill:#eb0029" /><rect
           x="561.5"
           y="226.89999"
           class="st1"
           width="19.9"
           height="19.9"
           id="rect212"
           style="fill:#eb0029" /><rect
           x="480.79999"
           y="44.900002"
           class="st1"
           width="100.2"
           height="20"
           id="rect214"
           style="fill:#eb0029" /><rect
           x="439.39999"
           y="124.6"
           class="st1"
           width="21.299999"
           height="101.6"
           id="rect216"
           style="fill:#eb0029" /><polygon
           class="st1"
           points="481.3,146 481.3,186 500.6,186 500.6,165.3 520.4,165.3 520.4,125.3 500.7,125.3 500.7,105.5 480.8,105.5 480.8,84.6 461.3,84.6 461.3,124.9 480.8,124.9 480.8,125.3 500.6,125.3 500.6,146 "
           id="polygon218"
           style="fill:#eb0029" /><polygon
           class="st1"
           points="642.5,145.7 642.5,125 661.8,125 661.8,43.1 602.6,43.1 602.6,65 582.8,65 582.8,84.8 602.6,84.8 602.6,124.9 582.8,124.9 582.8,145.7 "
           id="polygon220"
           style="fill:#eb0029" /><rect
           x="602.59998"
           y="166.7"
           class="st1"
           width="19.9"
           height="19.9"
           id="rect222"
           style="fill:#eb0029" /><polygon
           class="st1"
           points="783.8,408.6 764.5,408.6 764.5,489.9 783.8,489.9 803.8,489.9 803.8,430.2 783.8,430.2 "
           id="polygon224"
           style="fill:#eb0029" /><rect
           x="724.40002"
           y="430.20001"
           class="st1"
           width="19.9"
           height="19.9"
           id="rect226"
           style="fill:#eb0029" /><rect
           x="723.5"
           y="247"
           class="st1"
           width="40.200001"
           height="19.9"
           id="rect228"
           style="fill:#eb0029" /><polygon
           class="st1"
           points="662.6,207 622.4,207 622.4,226.9 642.5,226.9 642.5,246.8 662.4,246.8 662.4,226.9 662.6,226.9 "
           id="polygon230"
           style="fill:#eb0029" /><rect
           x="723.5"
           y="227"
           class="st1"
           width="19.9"
           height="19.9"
           id="rect232"
           style="fill:#eb0029" /><rect
           x="683.29999"
           y="207"
           class="st1"
           width="40.200001"
           height="19.9"
           id="rect234"
           style="fill:#eb0029" /><polygon
           class="st1"
           points="277.4,166 277.4,206.3 296.9,206.3 296.9,226.4 318.8,226.4 318.8,206.3 338.9,206.3 338.9,206.5 358.8,206.5 358.8,186.6 338.9,186.6 338.9,145.4 317.8,145.4 297.9,145.4 297.9,165.3 317.8,165.3 317.8,186.2 296.9,186.2 296.9,166 "
           id="polygon236"
           style="fill:#eb0029" /><rect
           x="94.800003"
           y="267.79999"
           class="st1"
           width="19.9"
           height="19.9"
           id="rect238"
           style="fill:#eb0029" /><rect
           x="136.3"
           y="246.8"
           class="st1"
           width="39.299999"
           height="20.4"
           id="rect240"
           style="fill:#eb0029" /><polygon
           class="st1"
           points="74.9,227.1 74.9,246.8 74.9,266.7 94.8,266.7 94.8,246.8 136.3,246.8 136.3,227.1 "
           id="polygon242"
           style="fill:#eb0029" /><rect
           x="74.900002"
           y="287.70001"
           class="st1"
           width="19.9"
           height="19.9"
           id="rect244"
           style="fill:#eb0029" /><polygon
           class="st1"
           points="399,164.8 399,84.8 379.8,84.8 379.8,125.6 359.9,125.6 359.9,145.4 379.8,145.4 379.8,164.8 "
           id="polygon246"
           style="fill:#eb0029" /><polygon
           class="st1"
           points="156.1,470 156.1,450.1 136.2,450.1 94.5,450.1 94.5,469.9 74.7,469.9 74.7,490.1 115.5,490.1 115.5,469.9 136.2,469.9 136.2,470 "
           id="polygon248"
           style="fill:#eb0029" /><rect
           x="298.60001"
           y="84.800003"
           class="st1"
           width="19.1"
           height="39.799999"
           id="rect250"
           style="fill:#eb0029" /><rect
           x="197.10001"
           y="571.59998"
           class="st1"
           width="19.9"
           height="19.9"
           id="rect252"
           style="fill:#eb0029" /><polygon
           class="st1"
           points="337.3,64.9 337.3,44.9 298.4,44.9 298.4,64.9 318.8,64.9 318.8,84 379.4,84 379.4,64.9 "
           id="polygon254"
           style="fill:#eb0029" /><rect
           x="237.39999"
           y="65"
           class="st1"
           width="19.9"
           height="19.9"
           id="rect256"
           style="fill:#eb0029" /><polygon
           class="st1"
           points="217.8,246.8 278.3,246.8 278.3,226.1 237.4,226.1 237.4,206.9 155.6,206.9 155.6,226.1 217.8,226.1 "
           id="polygon258"
           style="fill:#eb0029" /><polygon
           class="st1"
           points="297.3,145.4 297.3,125.6 277.4,125.6 277.4,84.8 258.2,84.8 258.2,145.2 237.4,145.2 237.4,206.3 258.2,206.3 258.2,164.8 277.4,164.8 277.4,145.4 "
           id="polygon260"
           style="fill:#eb0029" /><rect
           x="277.39999"
           y="65"
           class="st1"
           width="19.9"
           height="19.9"
           id="rect262"
           style="fill:#eb0029" /><path
           class="st1"
           d="m 538.4,484.9 0,-132.3 c 0,-12.6 -10.2,-22.8 -22.8,-22.8 l -132.3,0 c -12.6,0 -22.8,10.2 -22.8,22.8 l 0,132.3 c 0,12.6 10.2,22.8 22.8,22.8 l 132.3,0 c 12.6,0 22.8,-10.2 22.8,-22.8 z"
           id="path264"
           inkscape:connector-curvature="0"
           style="fill:#eb0029" /><rect
           x="116.2"
           y="85.699997"
           class="st1"
           width="60.299999"
           height="60.299999"
           id="rect266"
           style="fill:#eb0029" /><path
           class="st1"
           d="m 217.8,43.9 -142.9,0 0,142.9 142.9,0 0,-142.9 z m -21.8,121.2 -99.3,0 0,-99.4 99.3,0 0,99.4 z"
           id="path268"
           inkscape:connector-curvature="0"
           style="fill:#eb0029" /><rect
           x="723.40002"
           y="85.699997"
           class="st1"
           width="60.299999"
           height="60.299999"
           id="rect270"
           style="fill:#eb0029" /><path
           class="st1"
           d="m 682.1,43.9 0,142.9 142.9,0 0,-142.9 -142.9,0 z m 121.1,121.2 -99.4,0 0,-99.4 99.4,0 0,99.4 z"
           id="path272"
           inkscape:connector-curvature="0"
           style="fill:#eb0029" /><rect
           x="116.2"
           y="693.79999"
           class="st1"
           width="60.299999"
           height="60.299999"
           id="rect274"
           style="fill:#eb0029" /><path
           class="st1"
           d="m 74.9,795 142.9,0 0,-142.9 -142.9,0 0,142.9 z m 21.8,-121.2 99.3,0 0,99.4 -99.3,0 0,-99.4 z"
           id="path276"
           inkscape:connector-curvature="0"
           style="fill:#eb0029" /></g></g><g
       id="g278"><path
         class="st0"
         d="m 470.1,403.1 c -9.5,0.5 -17.8,3.4 -24.6,9.9 -6.8,6.6 -9.9,14.7 -9.1,24.7 -3.7,-0.5 -7.1,-1 -10.5,-1.3 -1.2,-0.1 -2.6,0 -3.6,0.6 -3.3,1.9 -6.5,4 -10.3,6.3 0.7,-3.1 1.1,-5.9 1.9,-8.5 0.6,-1.9 0.3,-3 -1.5,-4.3 -11.5,-8.1 -16.3,-20.2 -12.7,-32.7 3.3,-11.5 11.6,-18.5 22.7,-22.2 15.2,-5 32.4,0.1 41.6,12.2 3.5,4.6 5.6,9.5 6.1,15.3 z m -43.9,-3.9 c 0.1,-2.3 -1.9,-4.3 -4.2,-4.4 -2.4,-0.1 -4.4,1.8 -4.4,4.1 -0.1,2.4 1.8,4.3 4.2,4.4 2.3,0.1 4.3,-1.7 4.4,-4.1 z m 22.9,-4.4 c -2.4,0 -4.3,2 -4.3,4.3 0,2.4 2,4.2 4.4,4.2 2.4,0 4.3,-1.9 4.2,-4.3 0,-2.3 -1.9,-4.2 -4.3,-4.2 z"
         id="path280"
         inkscape:connector-curvature="0"
         style="fill:#ffffff" /><path
         class="st0"
         d="m 491.6,462.6 c -3,-1.3 -5.8,-3.4 -8.7,-3.7 -2.9,-0.3 -6,1.4 -9.1,1.7 -9.4,1 -17.8,-1.7 -24.7,-8.1 -13.2,-12.2 -11.3,-30.9 3.9,-40.8 13.5,-8.9 33.4,-5.9 42.9,6.4 8.3,10.7 7.4,25 -2.8,34 -2.9,2.6 -4,4.8 -2.1,8.2 0.3,0.7 0.4,1.5 0.6,2.3 z m -34.4,-33.3 c 1.9,0 3.5,-1.5 3.6,-3.4 0.1,-2 -1.5,-3.7 -3.6,-3.7 -2,0 -3.7,1.7 -3.6,3.7 0,1.9 1.6,3.4 3.6,3.4 z m 22.1,-7.1 c -1.9,0 -3.5,1.5 -3.5,3.4 -0.1,2 1.5,3.7 3.5,3.7 1.9,0 3.5,-1.5 3.5,-3.4 0.1,-2 -1.5,-3.7 -3.5,-3.7 z"
         id="path282"
         inkscape:connector-curvature="0"
         style="fill:#ffffff" /></g></g></svg>