<svg version="1.1"
	 xmlns="http://www.w3.org/2000/svg" xmlns:xlink="http://www.w3.org/1999/xlink" xmlns:a="http://ns.adobe.com/AdobeSVGViewerExtensions/3.0/"
	 x="0px" y="0px" width="456px" height="118.8px" viewBox="0 0 456 118.8" style="enable-background:new 0 0 456 118.8;"
	 xml:space="preserve">
<style type="text/css">
	.st0{fill:#ca151c;}
</style>
<defs>
</defs>
<path class="st0" d="M0,91.7h18.9v-0.9c-0.7,0-1.4-0.1-2-0.5c-0.5-0.3-0.7-0.8-0.7-1.3c0-0.3,0-0.7,0.1-1c0.1-0.3,0.2-0.6,0.4-0.8
	l39.2-63.3l12.3,20.3H50.6l-7.9,13.7l0.6,0.5l1.8-1.5c0.2-0.2,0.6-0.4,0.9-0.4c0.9-0.1,1.7-0.1,2.6-0.1h27.2l18.8,30.9
	c0.1,0.2,0.3,0.5,0.3,0.7c0.1,0.3,0.2,0.7,0.2,1c0,0.5-0.3,1-0.7,1.3c-0.6,0.4-1.3,0.5-2,0.5v0.9h19.2L55.9,0L0,91.7z"/>
<path class="st0" d="M167.4,88.2c-0.2-0.4-0.2-0.9-0.2-1.3V60.2c0-8.6-2.1-15.1-6.3-19.5c-4.2-4.4-10.4-6.7-18.6-6.7h-8.7l-4.2,4.2
	l-0.3-0.1V34H116V35l1.6,1.5c0.3,0.3,0.5,0.6,0.7,1c0.1,0.4,0.2,0.8,0.2,1.1v48.3c0,0.4-0.1,0.9-0.2,1.3c-0.2,0.4-0.4,0.7-0.7,1
	l-1.6,1.6v0.9h16.1v-0.9l-1.7-1.6c-0.3-0.3-0.5-0.6-0.7-1c-0.2-0.4-0.2-0.9-0.2-1.3V44.4h13.3c4.4,0,7.7,1.3,10,4.1
	c2.3,2.7,3.4,6.6,3.4,11.8v26.7c0,0.4-0.1,0.9-0.2,1.3c-0.1,0.4-0.4,0.7-0.7,1l-1.7,1.6v0.9h16.1v-0.9l-1.7-1.6
	C167.8,89,167.6,88.6,167.4,88.2"/>
<path class="st0" d="M254.6,35l1.6,1.5c0.3,0.3,0.5,0.6,0.7,1c0.1,0.4,0.2,0.8,0.2,1.1v48.3c0,0.4-0.1,0.9-0.2,1.3
	c-0.2,0.4-0.4,0.7-0.7,1l-1.6,1.6v0.9h16.1v-0.9l-1.7-1.6c-0.3-0.3-0.5-0.6-0.6-1c-0.2-0.4-0.2-0.9-0.2-1.3V38.7
	c0-0.4,0.1-0.8,0.2-1.2c0.2-0.4,0.4-0.7,0.6-1l1.7-1.5V34h-16.1V35z"/>
<path class="st0" d="M299.7,20.5h-0.9c-2.9,4.3-6,8.5-9.4,12.5c-3.2,3.8-11.3,7.3-14.6,10.5v0.9h13.8v42.5c0,0.4-0.1,0.9-0.2,1.3
	c-0.1,0.4-0.4,0.7-0.6,1l-1.6,1.6v0.9h16v-0.9l-1.6-1.6c-0.3-0.3-0.5-0.6-0.7-1c-0.2-0.4-0.2-0.9-0.2-1.3V44.4h2.8
	c0.5,0,5,0.2,5.4,0.6c0.3,0.4,0.5,0.9,0.5,1.4v0.9l0.9,0.1l6-13.3h-15.6V20.5z"/>
<path class="st0" d="M350.8,35.7c-2.1-1.1-4.4-1.7-6.8-1.7h-23.9V35l1.6,1.5c0.3,0.3,0.5,0.6,0.7,1c0.1,0.4,0.2,0.8,0.2,1.1v48.3
	c0,0.4-0.1,0.9-0.2,1.3c-0.2,0.4-0.4,0.7-0.7,1l-1.6,1.6v0.9h16.1v-0.9l-1.7-1.6c-0.3-0.3-0.5-0.6-0.7-1c-0.2-0.4-0.2-0.9-0.2-1.3
	v-42h8.9c1.9-0.1,3.9,0.4,5.5,1.4c1.3,0.7,2.1,2.1,2.1,3.6v0.9l0.9,0.1l5.1-10.6C354.8,38.4,352.9,36.8,350.8,35.7"/>
<path class="st0" d="M366.5,35l1.6,1.5c0.3,0.3,0.5,0.6,0.7,1c0.1,0.4,0.2,0.8,0.2,1.1v48.3c0,0.4-0.1,0.9-0.2,1.3
	c-0.2,0.4-0.4,0.7-0.7,1l-1.6,1.6v0.9h16.1v-0.9l-1.7-1.6c-0.3-0.3-0.5-0.6-0.7-1c-0.2-0.4-0.2-0.9-0.2-1.3V38.7
	c0-0.4,0.1-0.8,0.2-1.2c0.2-0.4,0.4-0.7,0.7-1l1.7-1.5V34h-16.1V35z"/>
<path class="st0" d="M224.4,8.3l1,1c0.3,0.3,0.5,0.6,0.7,1c0.1,0.4,0.2,0.8,0.3,1.2v20.5c0,1.1-0.9,2.1-2.1,2.1l0,0h-10.8
	c-10.1,0-18.1,2.6-23.9,7.9c-5.8,5.3-8.7,12.4-8.7,21.4c0,8.2,2.8,14.9,8.3,20.3c2.1,2,4.4,3.7,7,4.9c5.1,2.6,11.3,2.5,16.3-0.4
	c3.7-2.4,6.7-5.8,8.4-9.9l-2.2,1.8c-0.4,0.4-0.9,0.7-1.4,0.9c-0.4,0.2-0.9,0.2-1.3,0.2h-4.7c-6.1,0-10.8-1.6-14.1-4.8
	c-3.3-3.2-5-7.8-5-13.7c0-5.9,1.8-10.4,5.4-13.6c3.6-3.2,8.8-4.8,15.5-4.8h11c1.1,0,2.1,0.9,2.1,2.1l0,0v40.5c0,0.4-0.1,0.9-0.2,1.3
	c-0.2,0.4-0.4,0.7-0.7,1l-0.9,1c-0.4,0.4-0.6,0.9-0.6,1.4l0,0h15.7l0,0c0-0.5-0.2-1.1-0.6-1.4l-1-1c-0.3-0.3-0.5-0.6-0.7-1
	c-0.2-0.4-0.2-0.9-0.2-1.3V11.4c0-0.4,0.1-0.9,0.2-1.3c0.2-0.3,0.4-0.7,0.7-0.9l1-1c0.4-0.4,0.6-0.9,0.6-1.4l0,0h-15.8
	C223.8,7.4,224,7.9,224.4,8.3"/>
<path class="st0" d="M341.3,3.9l-2.8-0.7c-0.9-0.2-1.9-0.4-2.8-0.6c-1.9-0.4-3.8-0.6-5.7-0.9s-3.8-0.4-5.8-0.5s-3.9-0.1-5.8-0.1
	c-7.7,0.1-15.3,1.1-22.8,3c-3.7,0.9-7.3,2.1-10.9,3.6c-3.6,1.4-7,3.2-10.2,5.3l0.2,0.4c3.5-1.3,7.1-2.3,10.7-3.2
	c3.6-0.9,7.2-1.7,10.9-2.3c7.3-1.3,14.7-1.9,22.2-2c3.7,0,7.4,0.1,11.1,0.3c3.7,0.3,7.4,0.7,11,1.3c0.9,0.1,1.8,0.3,2.7,0.5
	s1.8,0.3,2.7,0.6c1.8,0.4,3.6,0.8,5.4,1.3c3.6,0.9,7.1,2.1,10.6,3.4l0.2-0.4c-3.2-2.1-6.6-4-10.1-5.5C348.7,6.1,345,4.9,341.3,3.9"
	/>
<path class="st0" d="M258.6,26.1l4,4.4l3.9-4.4c1-1.1,1.8-2.3,2.4-3.7c0.4-0.8,0.6-1.6,0.6-2.4c0-1.8-0.7-3.6-2.1-4.9
	c-2.8-2.7-7.2-2.7-10,0c-1.3,1.3-2,3.1-2,4.9c0.1,0.8,0.3,1.7,0.6,2.4C256.9,23.8,257.7,25.1,258.6,26.1 M260.4,17.9
	c1.2-1.2,3.2-1.2,4.4,0c0.6,0.6,0.9,1.3,0.9,2.2c0,0.8-0.3,1.6-0.9,2.2c-1.2,1.2-3.2,1.2-4.4,0C259.2,21.1,259.2,19.1,260.4,17.9"/>
<path class="st0" d="M370.5,26.1l4,4.4l3.9-4.4c1-1.1,1.8-2.3,2.4-3.7c0.4-0.8,0.6-1.6,0.6-2.4c0-1.8-0.7-3.6-2.1-4.9
	c-2.8-2.7-7.2-2.7-10,0c-1.3,1.3-2,3.1-2,4.9c0.1,0.8,0.3,1.7,0.6,2.4C368.7,23.8,369.5,25.1,370.5,26.1 M372.3,17.9
	c1.2-1.2,3.2-1.2,4.4,0c0.6,0.6,0.9,1.3,0.9,2.2c0,0.8-0.3,1.6-0.9,2.2c-1.2,1.2-3.2,1.2-4.4,0C371.1,21.1,371.1,19.1,372.3,17.9"/>
<polygon class="st0" points="415.3,78.9 415.4,78.4 415.1,78.5 "/>
<path class="st0" d="M447.3,41.9c-5.8-5.3-13.7-7.9-23.7-7.9h-26.2V35l1.6,1.4c0.3,0.3,0.5,0.6,0.7,1c0.1,0.4,0.2,0.8,0.2,1.1V114
	c0,0.4-0.1,0.9-0.2,1.3c-0.2,0.4-0.4,0.7-0.7,1l-1.6,1.6v0.9h15.8v-0.9l-1.6-1.5c-0.3-0.3-0.5-0.6-0.6-1c-0.2-0.4-0.2-0.9-0.2-1.3
	V44.4h13c6.8,0,12,1.6,15.5,4.8c3.5,3.2,5.3,8,5.3,14.2c0,5.5-1.7,9.9-5.1,13.1c-3.4,3.2-8.1,4.8-14,4.8h-2.8c-1,0-1.9-0.1-2.9-0.4
	c-0.8-0.3-1.6-0.7-2.2-1.3l-1.9-1.5l-0.4,0.2c0.8,1.3,1.7,2.6,2.6,3.8c7.2,8.6,20,9.8,28.6,2.6c0.3-0.3,0.7-0.6,1-0.9l0.1-0.1
	c5.5-5.3,8.2-12.1,8.2-20.3C456,54.4,453.1,47.2,447.3,41.9"/>
</svg>
