<svg xmlns="http://www.w3.org/2000/svg" xmlns:xlink="http://www.w3.org/1999/xlink" version="1.1" id="Capa_1" x="0px" y="0px" viewBox="0 0 655.1 156.6" style="enable-background:new 0 0 655.1 156.6;" xml:space="preserve">
<style type="text/css">
	.st0{fill:#fff;}
	.st1{fill:#fff;}
</style>
<g>
<g>
<g>
<path class="st0" d="M177.8,95h-19.1v19.8h-12.7V47.4c10.6,0,21.2-0.1,31.7-0.1C210.7,47.3,210.8,95,177.8,95z M158.8,83.3h19.1     c16.3,0,16.2-23.9,0-23.9h-19.1V83.3z"></path>
<path class="st0" d="M221.9,47.5v67.3h-11.6V47.5H221.9z"></path>
<path class="st0" d="M269.8,67.4h11.3v47.4H270l-0.6-6.9c-2.7,5.6-10.1,8.3-15.4,8.4c-14,0.1-24.4-8.6-24.4-25.2     c0-16.4,10.9-24.9,24.7-24.8c6.4,0,12.4,3,15.1,7.7L269.8,67.4z M241.3,91c0,9,6.3,14.4,14,14.4c18.5,0,18.5-28.8,0-28.8     C247.6,76.7,241.3,82,241.3,91z"></path>
<path class="st0" d="M332.7,108.7c-5.5,5.4-11.3,7.5-18.3,7.5c-13.8,0-25.2-8.3-25.2-25.1S300.7,66,314.4,66     c6.7,0,11.9,1.9,17.1,7l-7.4,7.8c-2.8-2.5-6.3-3.8-9.5-3.8c-7.9,0-13.7,5.8-13.7,14c0,9,6.2,13.9,13.5,13.9     c3.8,0,7.5-1.1,10.4-3.9L332.7,108.7z"></path>
<path class="st0" d="M349.8,95.3c0.8,5.9,5.9,10.1,14.1,10.1c4.3,0,10-1.6,12.7-4.4l7.5,7.4c-5,5.2-13.2,7.7-20.4,7.7     c-16.4,0-26.1-10.1-26.1-25.3c0-14.4,9.8-24.8,25.2-24.8c15.9,0,25.8,9.8,24,29.3L349.8,95.3L349.8,95.3z M375.6,85.5     c-0.8-6.2-5.6-9.2-12.3-9.2c-6.4,0-11.5,3.1-13.3,9.2H375.6z"></path>
<g>
<g>
<path class="st1" d="M410.5,54v13.5h13.1v10.1h-13.2v20.5c0,4.5,2.5,6.7,6.2,6.7c1.8,0,3.9-0.6,5.7-1.4l3.3,10       c-3.4,1.3-6.2,1.9-9.7,2c-10.3,0.4-17-5.5-17-17.3V77.6h-8.9V67.5h8.9V55.2L410.5,54z"></path>
</g>
</g>
<g>
<g>
<path class="st1" d="M479.4,91.1c0,13.7-9.3,24.7-24.7,24.7c-15.4,0-24.6-11.1-24.6-24.7c0-13.6,9.4-24.7,24.5-24.7       C469.7,66.4,479.4,77.6,479.4,91.1z M441.8,91.1c0,7.2,4.3,14,12.9,14c8.6,0,12.9-6.7,12.9-14c0-7.1-5-14-12.9-14       C446.2,77.1,441.8,84,441.8,91.1z"></path>
</g>
</g>
<path class="st0" d="M520.1,95h-19v19.8h-12.7V47.4c10.6,0,21.2-0.1,31.7-0.1C553,47.3,553.1,95,520.1,95z M501.1,83.3h19     c16.3,0,16.2-23.9,0-23.9h-19V83.3z"></path>
<path class="st0" d="M588.2,67.4h11.3v47.4h-11.1l-0.6-6.9c-2.7,5.6-10.1,8.3-15.4,8.4c-14,0.1-24.4-8.6-24.4-25.2     c0-16.4,10.9-24.9,24.7-24.8c6.3,0,12.4,3,15.1,7.7L588.2,67.4z M559.7,91c0,9,6.3,14.4,14,14.4c18.5,0,18.5-28.8,0-28.8     C565.9,76.7,559.7,82,559.7,91z"></path>
<path class="st0" d="M655.1,67.4l-29,67.3h-12.9l8.9-20.6l-19-46.7h13.7l7.2,20.5l4.5,13.4l4.9-13.1l8.7-20.8L655.1,67.4     L655.1,67.4z"></path>
</g>
</g>
<g>
<path class="st1" d="M6.9,156.6c-1.2,0-2.4-0.3-3.4-0.9c-2.1-1.2-3.4-3.5-3.4-6V114c0-2.5,1.3-4.7,3.4-6L55,78.3L13.8,54.5v30.2    c0,3.8-3.1,6.9-6.9,6.9c-3.8,0-6.9-3.1-6.9-6.9V42.6c0-2.5,1.3-4.7,3.4-6c2.1-1.2,4.7-1.2,6.9,0l61.9,35.7c2.1,1.2,3.4,3.5,3.4,6    s-1.3,4.7-3.4,6L13.8,118v19.8L101.9,87c3.1-1.8,5-5,5-8.6s-1.9-6.8-5-8.6L3.4,12.8C0.2,10.9-1,6.7,0.9,3.4C2.8,0.2,7-1,10.3,0.9    l98.5,56.9c7.4,4.3,11.9,12,11.9,20.5s-4.4,16.3-11.9,20.5l-98.5,56.9C9.3,156.3,8.1,156.6,6.9,156.6z"></path>
</g>
</g>
</svg>